# xmcd
#
# Track frame offsets:
# 150
# 17739
# 45996
# 63803
# 77613
# 92209
# 104491
# 121210
# 136975
# 154829
# 169566
# 184475
# 210046
# 227171
# 242601
# 264320
# 276404
# 289930
# 301606
#
# Disc length: 4223 seconds
#
#
# Revision: 0
# Processed by: cddbd v1.5.2PL0 Copyright (c) Steve Scherf et al.
# Submitted via: FreeRIP 2.96 
#
DISCID=f7107d13
DTITLE=Adriano e Anderson Ao vivo - Ao vivo
DYEAR=2006
DGENRE=sertanejo
TTITLE0=Doce Desejo
TTITLE1=Mil Razões Pra Chorarr
TTITLE2=Apaziguar
TTITLE3=Estrela Perdida
TTITLE4=Não Olhe Assim
TTITLE5=Sem Saída
TTITLE6=Porto de Solidão
TTITLE7=Boite Azul
TTITLE8=Deixa Eu Te Amar
TTITLE9=Coração Aberto
TTITLE10=Vai dar Namoro
TTITLE11=Modão
TTITLE12=Modão - 1
TTITLE13=Pagode em Brasilia
TTITLE14=Modão - 2
TTITLE15=Telefone Mudo
TTITLE16=Modão - 3
TTITLE17=Adeus Pra nunca mais
TTITLE18=Pompeano
EXTD=eao.u2
EXTT0=
EXTT1=
EXTT2=
EXTT3=
EXTT4=
EXTT5=
EXTT6=
EXTT7=
EXTT8=
EXTT9=
EXTT10=
EXTT11=
EXTT12=
EXTT13=
EXTT14=
EXTT15=
EXTT16=
EXTT17=
EXTT18=
PLAYORDER=
